Genre:Action
Language:English
IMDb:http://www.imdb.com/title/tt1597033/
Source:DVD


General
Complete name :Locked.Down.2010.DvDRip.Ac3.Feel-Free
Format : AVI
Format/Info : Audio Video Interleave
File size : 941 MiB
Duration : 1h 38mn
Overall bit rate : 1 332 Kbps
Video #0
Codec ID : XVID
Codec ID/Hint : XviD
Duration : 1h 38mn
Bit rate : 874 Kbps
Width : 720 pixels
Height : 384 pixels
Display aspect ratio : 1.875
Frame rate : 23.976 fps
Resolution : 24 bits
Colorimetry : 4:2:0
Scan type : Progressive
Bits/(Pixel*Frame) : 0.132
Stream size : 618 MiB (66%)
Writing library : XviD 1.2.1 (UTC 2008-12-04)
Audio #1
ID : 1
Format : AC-3
Format/Info : Audio Coding 3
Codec ID : 2000
Duration : 1h 38mn
Bit rate mode : Constant
Bit rate : 448 Kbps
Channel(s) : 6 channels
Channel positions : Front: L C R, Surround: L R, LFE
Sampling rate : 48.0 KHz
Stream size : 317 MiB (34%)
Alignment : Split accross interleaves
Interleave, duration : 42 ms (1.00 video frame)
Interleave, preload duration : 500 ms

Plot:
Danny, a respected cop, is setup after an investigation goes wrong. While laying low in his new jail cell, Danny is forced to get involved in the inmates underground cage fighting circuit. With the help of Irving, a former mixed martial arts champion, Danny devises a scheme to bring justice and innocence to his family's name, if he can get out of the cage alive.
